<?xml version="1.0" standalone="no"?>
<!DOCTYPE svg PUBLIC "-//W3C//DTD SVG 20010904//EN"
 "http://www.w3.org/TR/2001/REC-SVG-20010904/DTD/svg10.dtd">
<svg version="1.0" xmlns="http://www.w3.org/2000/svg"
 width="512.000000pt" height="512.000000pt" viewBox="0 0 512.000000 512.000000"
 preserveAspectRatio="xMidYMid meet">
<metadata>
Created by potrace 1.14, written by Peter Selinger 2001-2017
</metadata>
<g transform="translate(0.000000,512.000000) scale(0.100000,-0.100000)"
fill="#000000" stroke="none">
<path d="M1889 5116 c-2 -2 -37 -6 -77 -10 -41 -3 -77 -8 -80 -10 -4 -2 -29
-6 -57 -10 -27 -3 -84 -15 -125 -27 -41 -11 -85 -23 -98 -25 -38 -7 -244 -90
-322 -129 -508 -256 -889 -713 -1045 -1255 -18 -63 -36 -131 -39 -150 -3 -19
-8 -47 -11 -62 -12 -68 -15 -87 -22 -158 -20 -210 3 -507 53 -705 130 -505
448 -942 889 -1220 117 -74 237 -134 355 -178 94 -35 246 -81 305 -91 17 -3
39 -8 50 -10 11 -2 45 -7 75 -12 30 -4 58 -9 63 -10 4 -1 25 -2 47 -3 l39 -1
3 -304 3 -304 31 -38 c48 -60 205 -135 331 -159 40 -7 192 -33 233 -39 221
-34 657 -24 900 21 111 20 100 22 170 -31 84 -63 243 -139 350 -167 107 -27
285 -33 390 -13 420 80 744 411 804 823 65 451 -183 882 -604 1049 -170 67
-411 86 -570 44 -41 -11 -77 -16 -80 -12 -3 5 -4 52 -4 107 1 92 4 103 41 183
76 161 158 430 178 582 26 202 25 414 -5 588 -5 30 -12 69 -14 85 -34 199
-147 489 -267 682 -123 197 -325 422 -494 548 -44 33 -81 63 -83 68 -2 4 -8 7
-13 7 -4 0 -39 20 -76 44 -209 134 -475 234 -753 281 -81 14 -460 31 -471 21z
m71 -283 c0 -71 3 -138 6 -151 9 -31 55 -53 93 -46 52 11 61 37 61 188 l0 135
68 -4 c60 -4 103 -9 237 -32 17 -3 82 -20 145 -38 548 -158 1001 -570 1212
-1100 54 -135 98 -288 112 -396 4 -25 9 -57 11 -70 2 -13 5 -53 7 -89 l3 -65
-140 -1 c-138 -2 -139 -2 -162 -28 -28 -33 -30 -79 -3 -106 25 -25 11 -23 160
-26 69 -1 130 -3 137 -3 12 -1 11 -32 -2 -151 -13 -112 -66 -328 -98 -397
l-10 -22 -29 24 c-77 65 -278 129 -473 151 -27 3 -56 7 -64 10 -22 7 -239 18
-371 18 -422 0 -776 -72 -903 -184 -70 -61 -67 -28 -67 -665 l0 -575 -28 0
c-46 0 -250 39 -339 65 -591 171 -1070 630 -1262 1210 -56 171 -86 328 -95
499 -1 17 9 19 142 20 138 1 144 2 163 25 22 27 24 78 5 104 -21 27 -59 33
-192 31 l-122 -1 3 26 c2 14 6 57 10 95 55 624 466 1208 1047 1489 208 101
477 173 690 185 l48 3 0 -128z m1175 -2367 c39 -4 81 -8 95 -11 14 -2 48 -7
75 -10 141 -16 363 -89 372 -121 5 -14 -93 -58 -187 -83 -79 -21 -106 -27
-180 -37 -25 -3 -53 -8 -62 -9 -122 -24 -605 -24 -725 -1 -11 3 -44 7 -73 11
-29 4 -62 9 -74 11 -22 4 -128 27 -136 29 -3 1 -18 5 -35 10 -45 12 -132 51
-139 63 -19 31 177 99 371 128 21 3 49 7 63 10 14 2 72 7 130 10 58 4 106 7
107 8 5 5 335 -2 398 -8z m-900 -386 c280 -67 655 -84 999 -45 140 15 332 58
411 91 l34 14 -1 -140 -1 -140 -61 -29 c-52 -25 -165 -59 -216 -66 -8 -1 -31
-5 -50 -9 -44 -8 -114 -17 -250 -31 -53 -6 -390 -6 -470 0 -83 5 -183 16 -200
20 -8 2 -32 6 -53 10 -114 16 -255 58 -303 90 -23 15 -24 19 -24 155 l0 140
52 -21 c29 -11 88 -29 133 -39z m2052 -289 c308 -57 546 -276 639 -588 49
-167 32 -391 -43 -553 -96 -205 -282 -373 -487 -440 -128 -41 -293 -51 -419
-24 -272 57 -513 263 -604 518 -36 103 -55 291 -39 396 15 95 33 155 73 238
161 333 521 518 880 453z m-2173 -131 c69 -25 201 -57 271 -66 28 -3 59 -8 70
-10 18 -3 55 -7 205 -19 76 -6 365 -7 430 -1 25 3 80 7 124 11 43 3 98 10 122
14 24 5 44 5 44 1 0 -5 -4 -10 -8 -12 -25 -9 -152 -231 -152 -265 -1 -39 -62
-47 -365 -47 -324 0 -576 34 -733 100 -71 29 -72 32 -72 181 0 73 1 133 3 133
1 0 29 -9 61 -20z m135 -492 c105 -25 106 -25 167 -32 27 -4 65 -9 84 -11 130
-18 446 -25 598 -13 l72 6 -1 -112 c0 -61 2 -128 6 -148 6 -36 5 -38 -22 -39
-15 0 -46 -2 -68 -4 -63 -6 -405 -6 -460 0 -27 3 -74 7 -104 10 -201 20 -401
73 -445 119 -19 19 -21 32 -19 146 0 69 2 128 2 132 1 3 24 -3 53 -14 28 -10
90 -28 137 -40z m-119 -424 c74 -25 165 -47 245 -58 23 -4 50 -8 60 -10 11 -2
52 -7 90 -10 39 -4 90 -9 115 -11 72 -7 335 -7 463 0 98 6 117 5 117 -7 0 -19
72 -158 110 -213 17 -24 30 -46 30 -48 0 -33 -782 -43 -900 -12 -8 2 -37 6
-64 10 -105 13 -247 53 -307 87 l-39 22 0 138 c0 76 1 138 3 138 1 0 36 -12
77 -26z"/>
<path d="M3013 4141 c-13 -3 -207 -188 -433 -411 -226 -223 -415 -406 -420
-408 -5 -2 -28 3 -52 12 -42 14 -89 14 -151 0 -16 -3 -53 -25 -82 -49 -29 -24
-55 -42 -57 -39 -5 5 -292 107 -591 210 -121 42 -130 43 -157 29 -16 -8 -34
-24 -40 -35 -14 -25 -5 -69 17 -91 10 -10 108 -49 218 -88 288 -100 456 -160
488 -172 21 -9 27 -18 27 -43 1 -42 34 -114 73 -154 54 -57 102 -77 187 -77
64 0 82 4 125 28 64 36 114 102 130 171 13 55 12 85 -6 147 l-11 35 387 385
c467 462 434 429 441 457 14 54 -39 107 -93 93z m-899 -990 c47 -48 36 -125
-24 -156 -50 -26 -99 -14 -137 35 -20 25 -15 84 8 114 42 53 104 55 153 7z"/>
<path d="M4085 1675 c-23 -22 -25 -32 -25 -109 l0 -85 -52 -24 c-72 -32 -109
-66 -142 -127 -78 -143 -19 -313 132 -386 31 -16 59 -31 62 -35 10 -14 -1
-259 -12 -259 -6 0 -40 15 -77 34 -42 21 -77 32 -96 30 -64 -7 -88 -92 -40
-140 30 -30 133 -78 188 -88 41 -8 39 -3 38 -122 0 -42 5 -56 25 -74 33 -32
90 -32 116 -1 17 22 25 98 18 179 -1 12 3 22 9 22 21 0 99 41 128 68 84 76
114 193 78 303 -26 77 -99 146 -187 178 l-28 10 1 135 0 135 37 -13 c20 -8 53
-23 72 -34 41 -24 67 -29 98 -18 45 15 61 89 27 127 -23 24 -111 70 -174 90
l-56 17 -3 85 c-3 79 -5 88 -29 107 -35 27 -78 26 -108 -5z m-24 -400 c1 -34
1 -86 0 -142 l-2 -48 -34 37 c-48 51 -47 104 3 161 21 24 32 21 33 -8z m209
-440 c26 -43 25 -94 -2 -135 -40 -59 -46 -50 -47 69 -2 95 0 110 13 105 9 -3
25 -21 36 -39z"/>
</g>
</svg>
